stateDiagram-v2
  direction LR

  %% s_start state
  [*] --> s_start
  s_start --> s_key: c_keyval_key_first
  s_start --> s_done: c_eos
  s_start --> s_comment: c_comment_begin
  s_start --> s_before_key_space: c_ws
  s_start --> s_start: c_line_break
  s_start --> s_section_name: c_open_bracket
  s_start --> s_done: default

  %% s_comment state
  s_comment --> s_start: c_line_break
  s_comment --> s_done: c_eos
  s_comment --> s_comment: default

  %% s_section_name state
  s_section_name --> s_section_name: c_section_name
  s_section_name --> s_after_section_name: c_close_bracket
  s_section_name --> s_done: c_eos
  s_section_name --> s_done: default

  %% s_after_section_name state
  s_after_section_name --> s_after_section_name_space: c_ws
  s_after_section_name --> s_comment: c_comment_begin
  s_after_section_name --> s_start: c_line_break
  s_after_section_name --> s_done: c_eos
  s_after_section_name --> s_done: default

  %% s_after_section_name_space state
  s_after_section_name_space --> s_after_section_name_space: c_ws
  s_after_section_name_space --> s_comment: c_comment_begin
  s_after_section_name_space --> s_start: c_line_break
  s_after_section_name_space --> s_done: c_eos
  s_after_section_name_space --> s_done: default

  %% s_before_key_space state
  s_before_key_space --> s_before_key_space: c_ws
  s_before_key_space --> s_start: c_line_break
  s_before_key_space --> s_key: c_keyval_key_first
  s_before_key_space --> s_done: default

  %% s_after_key_space state
  s_after_key_space --> s_after_key_space: c_ws
  s_after_key_space --> s_expecting_value: c_key_value_delimiter
  s_after_key_space --> s_done: c_eos
  s_after_key_space --> s_done: default

  %% s_before_value_space state
  s_before_value_space --> s_before_value_space: c_ws
  s_before_value_space --> s_start: c_line_break
  s_before_value_space --> s_done: c_eos
  s_before_value_space --> s_comment: c_comment_begin
  s_before_value_space --> s_value: default

  %% s_expecting_value state
  s_expecting_value --> s_before_value_space: c_ws
  s_expecting_value --> s_done: c_eos
  s_expecting_value --> s_start: c_line_break
  s_expecting_value --> s_value: default

  %% s_key state
  s_key --> s_key: c_keyval_key
  s_key --> s_expecting_value: c_key_value_delimiter
  s_key --> s_done: c_eos
  s_key --> s_after_key_space: c_ws

  %% s_value state
  s_value --> s_start: c_line_break
  s_value --> s_done: c_eos
  s_value --> s_comment: c_comment_begin
  s_value --> s_value: default

  %% s_done state
  s_done --> [*]
